<?xml version="1.0" encoding="utf-8"?>
<!-- Generator: Adobe Illustrator 27.0.0, SVG Export Plug-In . SVG Version: 6.00 Build 0)  -->
<svg version="1.1" id="Layer_1" xmlns="http://www.w3.org/2000/svg" xmlns:xlink="http://www.w3.org/1999/xlink" x="0px" y="0px"
	 viewBox="76 64 486 67" style="enable-background:new 0 0 634.24 191.93;" xml:space="preserve">
<style type="text/css">
	.st0{fill:url(#SVGID_1_);}
	.st2{fill:rgb(26,46,37);}
@media(prefers-color-scheme: dark) {
	.st2{fill:#FFFFFF;}
}
</style>
<linearGradient id="SVGID_1_" gradientUnits="userSpaceOnUse" x1="75.5068" y1="93.253" x2="322.0683" y2="93.253">
	<stop  offset="0.0513" style="stop-color:#A2CE19"/>
	<stop  offset="1" style="stop-color:#14C1C1"/>
</linearGradient>
<path class="st0" d="M80.68,93.32c0,8.71,6.33,12.6,12.6,12.6c3.35,0,6.63-1.36,9-3.74l0.71-0.71l3.59,3.59l-0.71,0.71
	c-3.34,3.34-7.81,5.18-12.59,5.18c-10.3,0-17.77-7.42-17.77-17.64c0-10.39,7.31-17.64,17.77-17.64c4.71,0,9.18,1.84,12.59,5.17
	l0.73,0.72l-3.56,3.45l-0.7-0.7c-2.29-2.29-5.6-3.6-9.07-3.6C87.01,80.71,80.68,84.61,80.68,93.32z M151.67,93.38
	c0,10.43-7.23,17.71-17.58,17.71s-17.58-7.28-17.58-17.71c0-10.41,7.39-17.97,17.58-17.97S151.67,82.97,151.67,93.38z M146.5,93.38
	c0-7.5-5.22-12.93-12.41-12.93c-7.19,0-12.41,5.44-12.41,12.93c0,7.38,5.1,12.54,12.41,12.54C141.4,105.92,146.5,100.77,146.5,93.38
	z M179.52,75.41c-4.31,0.06-8.04,1.62-10.61,4.35v-3.76h-5.17v34.62h5.24V91.47c0-6.25,4.39-10.83,10.43-10.89
	c3.38-0.05,6.08,0.91,7.91,2.71c1.79,1.78,2.71,4.33,2.71,7.58v19.75h5.24V90.81C195.26,81.46,189.08,75.41,179.52,75.41z
	 M224.1,75.41c-4.31,0.06-8.04,1.62-10.61,4.35v-3.76h-5.17v34.62h5.24V91.47c0-6.25,4.39-10.83,10.43-10.89
	c3.36-0.05,6.08,0.91,7.91,2.71c1.79,1.78,2.71,4.33,2.71,7.58v19.75h5.24V90.81C239.84,81.46,233.66,75.41,224.1,75.41z
	 M281.85,80.74c3.12,3.44,4.46,8.35,3.88,14.19l-0.09,0.9h-29.17c1.11,6.96,6.78,10.08,12.15,10.08c4.43,0,8.93-1.87,10.96-4.56
	l0.62-0.82l3.88,3.1l-0.59,0.78c-3.13,4.11-8.83,6.67-14.86,6.67c-10.35,0-17.58-7.31-17.58-17.77c0-10.17,7.56-17.84,17.58-17.84
	C274.07,75.48,278.77,77.35,281.85,80.74z M256.48,91h24.31c-0.46-6.63-4.94-10.55-12.17-10.55C262.27,80.45,257.51,84.64,256.48,91
	z M321.25,77.74c-2.38-1.44-4.92-2.12-7.52-2.06c-4.09,0-7.59,1.44-9.9,3.96l-0.08-3.63h-5.02v34.62h5.24V90.61
	c0-5.49,4.29-9.84,9.76-9.9c1.86,0,3.55,0.46,5.02,1.37l0.89,0.55l2.42-4.4L321.25,77.74z"/>
<g>
	<path class="st2" d="M349.85,79.71c3.5,0,7.13,1.25,9.77,3.9l2.11-2.05c-3.3-3.24-7.59-4.89-11.89-4.89
		c-9.44,0-16.77,6.34-16.77,16.64c0,10.3,7.59,16.64,16.77,16.64c4.29,0,8.58-1.58,11.89-4.89l-2.18-2.18
		c-2.64,2.64-6.21,4.03-9.71,4.03c-7.4,0-13.6-4.82-13.6-13.6S342.45,79.71,349.85,79.71z"/>
	<path class="st2" d="M390.66,76.41c-9.18,0-16.58,6.6-16.58,16.97s7.4,16.71,16.58,16.71s16.58-6.34,16.58-16.71
		S399.84,76.41,390.66,76.41z M390.66,106.92c-7.4,0-13.41-5.08-13.41-13.54s6.01-13.93,13.41-13.93s13.41,5.48,13.41,13.93
		S398.06,106.92,390.66,106.92z"/>
	<path class="st2" d="M449.44,84.14c-2.64-5.28-7.92-7.66-13.54-7.66c-9.11,0-16.38,6.08-16.38,16.84c0,10.83,7.2,16.84,16.31,16.84
		c5.55,0,10.9-2.77,13.6-7.73v7.2h3.17V63.4h-3.17V84.14z M436.03,106.99c-7.33,0-13.34-4.62-13.34-13.67
		c0-9.18,6.01-13.74,13.34-13.74c7.53,0,13.34,5.55,13.34,13.67S443.69,106.99,436.03,106.99z"/>
	<path class="st2" d="M472.82,66.37c0-3.43-5.22-3.43-5.22,0C467.6,69.81,472.82,69.81,472.82,66.37z"/>
	<path class="st2" d="M502.4,76.41c-4.56,0.07-9.11,1.92-11.62,6.41v-5.81h-3.17v32.62h3.24V91.47c0-6.74,4.69-11.82,11.42-11.89
		c7.07-0.07,11.62,3.9,11.62,11.29v18.75h3.24V90.81C517.13,81.76,511.12,76.41,502.4,76.41z"/>
	<path class="st2" d="M552.59,106.2c5.42-2.44,8.78-8.19,8.78-13.87c0-5.28-1.72-8.58-4.03-11.09l3.17-3.7l-2.11-1.85l-3.17,3.7
		c-2.51-1.78-5.94-2.97-9.25-2.97c-8.45,0-15.32,5.75-15.32,15.92c0,8.72,5.88,15.78,15.32,15.78c6.08,0,12.35,2.77,12.35,9.77
		c0,6.93-5.81,9.84-12.35,9.84s-12.22-3.17-12.22-9.84h-3.24c0,8.25,6.8,13.01,15.45,13.01s15.52-4.23,15.52-13.01
		C561.51,112.27,558.34,108.24,552.59,106.2z M533.91,92.33c0-8.52,5.42-12.68,12.08-12.68c6.74,0,12.22,4.42,12.22,12.68
		c0,6.74-5.48,12.55-12.22,12.55C538.53,104.88,533.91,99.06,533.91,92.33z"/>
	<path class="st2" d="M471.79,86.69V74.76l-0.01-0.67h-2.4l-0.5,0.17v12.43c0,1.72,0,4.44,2.26,5.71c-2.26,1.28-2.26,4.13-2.26,5.76
		l0,13.05h2.91l0-13.05c0-3.97,1.67-4.42,2.93-4.42h0.5v-2.63h-0.5C473.47,91.12,471.79,90.66,471.79,86.69z"/>
</g>
</svg>
