<?xml version="1.0" encoding="utf-8"?>
<!-- Generator: Adobe Illustrator 27.0.0, SVG Export Plug-In . SVG Version: 6.00 Build 0)  -->
<svg version="1.1" id="Layer_1" xmlns="http://www.w3.org/2000/svg" xmlns:xlink="http://www.w3.org/1999/xlink" x="0px" y="0px"
	 viewBox="0 0 220.84 220.84" style="enable-background:new 0 0 220.84 220.84;" xml:space="preserve">
<style type="text/css">
	.st0{fill:url(#SVGID_1_);}
	.st2{fill:#FFFFFF;}
	.back-circle{fill:#000000;}
	@media(prefers-color-scheme: dark) {
		.back-circle{fill:#FFFFFF;}
	}
</style>
<g>
	<circle class="back-circle" cx="110.42" cy="110.42" r="110.42"/>
	<linearGradient id="SVGID_1_" gradientUnits="userSpaceOnUse" x1="48.1845" y1="109.6323" x2="163.3924" y2="109.6323">
		<stop  offset="0.0501" style="stop-color:#80A125"/>
		<stop  offset="1" style="stop-color:#2CC2DE"/>
	</linearGradient>
	<path class="st0" d="M87.58,89.84V71.2c0-3.19-3.48-5.77-7.96-5.7c-4.19,0.06-7.44,2.79-7.44,5.93l0,76.49
		c0,3.53,3.88,6.2,8.47,5.82c4.02-0.33,6.93-3.06,6.93-6.09l0-18.34c0,0,10.6,0.58,14.2-0.62l0,21.18c0,7.21-7.6,13.06-17.2,13.36
		h-8.8c-10,0-18-6.01-18-13.36v-28.08c-0.18-2.51-0.85-4.46-2.01-5.86c-1.38-1.65-3.45-2.67-6.21-3.05
		c-0.92-0.15-1.38-0.57-1.38-1.27v-6.56c0-0.77,0.46-1.19,1.38-1.27c5.09-0.64,7.82-3.59,8.22-8.85V69.4c0-0.55,0.06-1.1,0.15-1.63
		c0.73-7.81,6.21-11.73,16.46-11.73h1.39h8.42h0.38c9.6,0.15,17.2,6.16,17.2,13.36v19.83L87.58,89.84z M163.39,89.22V69.4
		c0-7.21-7.6-13.21-17.2-13.36h-0.38h-8.42h-1.39c-10.25,0-15.74,3.91-16.46,11.73c-0.09,0.54-0.15,1.08-0.15,1.63v25.54
		c-0.4,5.26-3.14,8.22-8.22,8.85c-0.92,0.08-1.38,0.5-1.38,1.27v6.56c0,0.69,0.46,1.11,1.38,1.27c2.76,0.39,4.83,1.4,6.21,3.05
		c1.16,1.39,1.83,3.35,2.01,5.86v28.08c0,7.36,8,13.36,18,13.36h8.8c9.6-0.3,17.2-6.16,17.2-13.36l0-21.18
		c-3.6,1.2-14.2,0.62-14.2,0.62l0,18.34c0,3.03-2.92,5.76-6.93,6.09c-4.59,0.38-8.47-2.29-8.47-5.82l0-76.49
		c0-3.14,3.26-5.88,7.44-5.93c4.48-0.06,7.96,2.51,7.96,5.7v18.64L163.39,89.22z"/>
</g>
</svg>
